<svg width="50" height="42" viewBox="0 0 50 42" fill="none" xmlns="http://www.w3.org/2000/svg">
<g clip-path="url(#clip0_1640_23312)">
<path d="M0 21H6.25L25 3.024L43.75 21H50L28.15 0H21.9L0 21ZM6.25 42H18.75V28.896C18.75 28.168 19.05 27.552 19.65 27.048C20.25 26.544 21 26.278 21.9 26.25H28.15C28.9833 26.25 29.7167 26.516 30.35 27.048C30.9833 27.58 31.2833 28.196 31.25 28.896V42H43.75V24.402L25 7.014L6.25 24.402V42ZM40.65 8.022L46.9 14.028V2.646H40.65V8.022Z" fill="#F4980E"/>
</g>
<defs>
<clipPath id="clip0_1640_23312">
<rect width="50" height="42" fill="white"/>
</clipPath>
</defs>
</svg>
