<svg width="46" height="45" viewBox="0 0 46 45" fill="none" xmlns="http://www.w3.org/2000/svg">
<g clip-path="url(#clip0_1640_23323)">
<path d="M25.5826 8.01172H10.2424C9.11257 8.01172 8.19629 8.92799 8.19629 10.0568C8.19629 11.1857 9.11257 12.1019 10.2424 12.1019H25.5826C26.7143 12.1019 27.6286 11.1857 27.6286 10.0568C27.6277 8.92799 26.7133 8.01172 25.5826 8.01172Z" fill="#F4980E"/>
<path d="M27.6277 17.7267C27.6277 16.597 26.7133 15.6816 25.5816 15.6816H10.2424C9.11257 15.6816 8.19629 16.5979 8.19629 17.7267C8.19629 18.8565 9.11257 19.7728 10.2424 19.7728H25.5826C26.7133 19.7728 27.6277 18.8565 27.6277 17.7267Z" fill="#F4980E"/>
<path d="M17.9134 27.4427C19.0432 27.4427 19.9585 26.5265 19.9585 25.3976C19.9585 24.2678 19.0432 23.3516 17.9134 23.3516H10.2424C9.11257 23.3516 8.19629 24.2678 8.19629 25.3976C8.19629 26.5274 9.11257 27.4427 10.2424 27.4427H17.9134Z" fill="#F4980E"/>
<path d="M33.3534 34.4011L31.2078 35.8171V40.9088H4.61754V4.09117H31.2078V12.1739L35.2989 5.08787V2.04511C35.2989 0.915319 34.3826 0 33.2529 0H2.57147C1.44169 0 0.526367 0.916277 0.526367 2.04511V42.9559C0.526367 44.0856 1.44169 45.001 2.57147 45.001H33.2529C34.3836 45.001 35.2999 44.0847 35.2999 42.9559V31.6819L34.3223 33.3728C34.0839 33.7854 33.7488 34.1406 33.3534 34.4011Z" fill="#F4980E"/>
<path d="M45.4488 9.47384C45.4067 9.29001 44.9749 7.63746 42.3726 6.13426C39.7702 4.63203 38.1234 5.08395 37.9415 5.14044C37.6974 5.21799 37.4915 5.38267 37.3632 5.6048L24.5794 27.7467C24.4999 27.8855 24.453 28.0397 24.4434 28.1986L23.9647 36.1885C23.9417 36.5753 24.139 36.9411 24.4731 37.1354C24.8101 37.3288 25.2247 37.3154 25.5483 37.1038L32.2284 32.6938C32.3615 32.6077 32.4716 32.4899 32.5511 32.353L45.3359 10.2072C45.4642 9.98512 45.5034 9.72469 45.4488 9.47384ZM28.1258 33.5642C27.7859 33.2894 27.4 33.0299 26.9854 32.7896C26.569 32.5493 26.1515 32.3472 25.7436 32.1883L25.8863 29.7928C26.4196 29.8627 27.2104 30.0791 28.2148 30.6574C29.2182 31.2366 29.7994 31.8149 30.1287 32.241L28.1258 33.5642Z" fill="#F4980E"/>
<path d="M14.7867 36.8946C14.8537 37.3054 15.3276 37.4327 15.6445 37.5648C15.9509 37.6941 16.3167 37.449 16.5713 37.3255C18.132 36.5662 20.246 37.4586 21.9177 37.4586C22.9068 37.4586 22.9068 35.9247 21.9177 35.9247C19.9684 35.9247 18.3465 35.4316 16.4143 35.7505C16.4143 35.6384 16.3732 35.4872 16.2525 35.2813C15.8916 34.6638 15.432 34.4886 14.9715 34.5632C14.9408 34.4905 14.9111 34.4177 14.868 34.344C14.7474 34.1467 14.5789 34.0481 14.3893 34.007C14.9284 33.0648 15.2759 32.0681 14.9226 31.262C14.8144 31.0169 14.5071 30.8914 14.2601 30.8819C13.2356 30.8436 12.3567 31.9188 11.6979 32.5641C10.0502 34.1793 8.59869 36.0128 7.19411 37.8377C6.59092 38.6219 7.92464 39.384 8.51826 38.6132C9.76294 36.9971 11.0813 35.4278 12.5003 33.96C12.1585 34.5211 11.7956 35.0716 11.4136 35.6021C10.8678 36.4456 12.1709 37.1637 12.7377 36.3766C12.8727 36.1708 13.0441 36.0224 13.2318 35.895C13.1944 35.9898 13.1561 36.0827 13.1178 36.1784C13.1197 36.1784 13.1217 36.1794 13.1236 36.1804C13.0939 36.2416 13.0642 36.3029 13.0403 36.3613C12.6975 37.2202 13.9776 37.6137 14.4429 36.9511C14.5607 36.7845 14.6699 36.6064 14.7685 36.4197C14.7618 36.548 14.7589 36.7204 14.7867 36.8946Z" fill="#F4980E"/>
</g>
<defs>
<clipPath id="clip0_1640_23323">
<rect width="45" height="45" fill="white" transform="translate(0.5)"/>
</clipPath>
</defs>
</svg>
