<svg width="64" height="64" viewBox="0 0 64 64" fill="none" xmlns="http://www.w3.org/2000/svg">
<path d="M31.2675 45.6057C31.0035 45.0257 30.4569 44.6025 29.7953 44.5273C29.235 44.4633 28.6865 44.3433 28.1649 44.1702C27.931 44.0915 27.7115 44.0057 27.5083 43.9137L27.8459 42.9934C28.0843 43.0998 28.3299 43.1971 28.5814 43.2851L28.5918 43.2889L28.6025 43.2923C29.4094 43.559 30.2035 43.6942 30.9622 43.6942C31.7241 43.6942 32.2763 43.5921 32.7006 43.3731L32.7259 43.3601L32.7507 43.3457C33.3934 42.9769 33.7622 42.343 33.7622 41.6062C33.7622 40.7886 33.3211 40.1099 32.5518 39.7433C32.1649 39.555 31.6153 39.3753 30.8235 39.1785C30.0115 38.9731 29.3294 38.7553 28.8003 38.5321C28.4137 38.3571 28.0782 38.0779 27.7758 37.6787C27.5155 37.3225 27.3838 36.7867 27.3838 36.0857C27.3838 35.2398 27.6219 34.5417 28.1121 33.9513C28.5483 33.4339 29.1678 33.0825 29.9993 32.8854C30.6161 32.7393 31.0971 32.299 31.3134 31.7305C31.5579 32.3067 32.0782 32.7353 32.7257 32.8385C33.2665 32.9246 33.763 33.0619 34.2094 33.2478L33.8987 34.1497C33.0558 33.8113 32.2262 33.6403 31.4238 33.6403C28.759 33.6403 28.6241 35.4787 28.6241 35.8473C28.6241 36.6462 29.0555 37.3161 29.8078 37.6854L29.8289 37.6958L29.8502 37.7054C30.2302 37.875 30.7694 38.0385 31.5475 38.2198C32.3521 38.4017 33.023 38.6099 33.5502 38.8409L33.5611 38.8457L33.5721 38.8502C33.9635 39.0131 34.2993 39.2851 34.5985 39.6819L34.6033 39.6881L34.6081 39.6945C34.8697 40.0326 35.0025 40.5555 35.0025 41.2489C35.0025 42.0491 34.7707 42.7265 34.2939 43.3198C33.8803 43.8345 33.303 44.1907 32.5283 44.4089C31.9302 44.5774 31.4662 45.0347 31.2675 45.6057Z" fill="#F4980E"/>
<path d="M31.9429 48.0006H30.6589C30.3717 48.0006 30.1389 47.762 30.1389 47.4673V46.3967C30.1389 46.1151 29.9253 45.8836 29.6522 45.8524C29.0021 45.7785 28.3733 45.6407 27.7655 45.4391C27.1751 45.2401 26.6636 45.0044 26.2311 44.731C26.0323 44.6054 25.9599 44.3505 26.0421 44.1265L26.9229 41.7249C27.0415 41.4017 27.4242 41.278 27.7189 41.4452C28.1167 41.6705 28.5445 41.8633 29.0015 42.0233C29.6829 42.2484 30.3367 42.3609 30.9629 42.3609C31.5013 42.3609 31.8861 42.3015 32.1167 42.1823C32.3474 42.0497 32.4629 41.8577 32.4629 41.6063C32.4629 41.3151 32.309 41.0966 32.0013 40.951C31.7047 40.8054 31.2101 40.6465 30.5181 40.4745C29.6279 40.2495 28.8863 40.0111 28.293 39.7596C27.6997 39.4948 27.1831 39.071 26.7437 38.4886C26.3041 37.8929 26.0844 37.0919 26.0844 36.0857C26.0844 34.9207 26.4305 33.9212 27.1226 33.0871C27.7466 32.3473 28.6079 31.8471 29.7071 31.5865C29.9546 31.5279 30.1389 31.3076 30.1389 31.0473V29.8673C30.1389 29.5727 30.3717 29.334 30.6589 29.334H31.9429C32.2301 29.334 32.4629 29.5727 32.4629 29.8673V30.9799C32.4629 31.2524 32.6634 31.4793 32.9258 31.5212C33.8887 31.6745 34.7349 31.9649 35.4639 32.3924C35.6709 32.5137 35.753 32.7719 35.6735 33.0023L34.8493 35.394C34.7402 35.7111 34.3762 35.8452 34.0834 35.6937C33.1549 35.2137 32.2687 34.9737 31.4245 34.9737C30.4245 34.9737 29.9245 35.2649 29.9245 35.8473C29.9245 36.1255 30.073 36.3372 30.3695 36.483C30.6663 36.6153 31.1551 36.7609 31.8365 36.9199C32.7154 37.1185 33.4573 37.35 34.0615 37.6148C34.6658 37.8663 35.1877 38.2833 35.6274 38.866C36.0778 39.4484 36.3031 40.2428 36.3031 41.2489C36.3031 42.3609 35.9679 43.334 35.2975 44.1681C34.7138 44.895 33.9055 45.4038 32.8733 45.6948C32.6359 45.7617 32.4629 45.9772 32.4629 46.2295V47.4673C32.4629 47.762 32.2301 48.0006 31.9429 48.0006Z" fill="#F4980E"/>
<path fill-rule="evenodd" clip-rule="evenodd" d="M25.5796 13.334H36.8376C39.7211 13.334 38.1376 17.7713 36.9701 20.478L35.6416 23.582L35.4621 24.0007C36.7205 23.938 37.9651 24.2954 39.0085 25.0193C42.9123 28.6828 46.0805 33.0935 48.3349 38.0033C49.2133 39.8188 49.5619 41.8561 49.3384 43.87C49.0701 49.0031 45.0549 53.0934 40.0485 53.334H22.3686C17.3609 53.1006 13.3397 49.0145 13.0658 43.8807C12.8423 41.8668 13.1908 39.8295 14.0694 38.014C16.3264 33.0993 19.4991 28.6847 23.4086 25.0193C24.4523 24.2954 25.6966 23.938 26.9549 24.0007L26.7469 23.518L25.447 20.478C24.2848 17.7713 22.6936 13.334 25.5796 13.334Z" stroke="#F4980E" stroke-width="5" stroke-linecap="round" stroke-linejoin="round"/>
<path d="M35.4625 25.9991C36.567 25.9991 37.4625 25.1036 37.4625 23.9991C37.4625 22.8945 36.567 21.9991 35.4625 21.9991V25.9991ZM26.9553 21.9991C25.8508 21.9991 24.9554 22.8945 24.9554 23.9991C24.9554 25.1036 25.8508 25.9991 26.9553 25.9991V21.9991ZM42.6073 23.0654C43.5644 22.5141 43.8934 21.2912 43.342 20.3341C42.7905 19.377 41.5678 19.048 40.6108 19.5994L42.6073 23.0654ZM35.642 23.5804L36.0278 25.5428L36.0337 25.5417L35.642 23.5804ZM26.7473 23.5164L27.1614 21.5596L27.1433 21.556L26.7473 23.5164ZM21.7764 19.5819C20.8096 19.0477 19.5928 19.3982 19.0585 20.365C18.5242 21.3318 18.8748 22.5486 19.8416 23.0829L21.7764 19.5819ZM35.4625 21.9991H26.9553V25.9991H35.4625V21.9991ZM40.6108 19.5994C38.9388 20.5625 37.1292 21.244 35.2502 21.6191L36.0337 25.5417C38.3412 25.0809 40.5606 24.2445 42.6073 23.0654L40.6108 19.5994ZM35.2561 21.618C32.5804 22.1442 29.83 22.1243 27.1614 21.5596L26.3333 25.4731C29.5289 26.1492 32.8233 26.173 36.0278 25.5428L35.2561 21.618ZM27.1433 21.556C25.2694 21.1776 23.4602 20.5125 21.7764 19.5819L19.8416 23.0829C21.8811 24.21 24.0755 25.0173 26.3515 25.4769L27.1433 21.556Z" fill="#F4980E"/>
</svg>
