<svg width="50" height="50" viewBox="0 0 50 50" fill="none" xmlns="http://www.w3.org/2000/svg">
<path fill-rule="evenodd" clip-rule="evenodd" d="M6.25 0H43.75V50H6.25V0ZM12.5 6.25H37.5V18.75H12.5V6.25ZM15.625 31.25C17.3509 31.25 18.75 29.8509 18.75 28.125C18.75 26.3991 17.3509 25 15.625 25C13.8991 25 12.5 26.3991 12.5 28.125C12.5 29.8509 13.8991 31.25 15.625 31.25ZM18.75 40.625C18.75 42.3509 17.3509 43.75 15.625 43.75C13.8991 43.75 12.5 42.3509 12.5 40.625C12.5 38.8991 13.8991 37.5 15.625 37.5C17.3509 37.5 18.75 38.8991 18.75 40.625ZM25 31.25C26.7259 31.25 28.125 29.8509 28.125 28.125C28.125 26.3991 26.7259 25 25 25C23.2741 25 21.875 26.3991 21.875 28.125C21.875 29.8509 23.2741 31.25 25 31.25ZM37.5 28.125C37.5 29.8509 36.1009 31.25 34.375 31.25C32.6491 31.25 31.25 29.8509 31.25 28.125C31.25 26.3991 32.6491 25 34.375 25C36.1009 25 37.5 26.3991 37.5 28.125ZM25 37.5C23.2741 37.5 21.875 38.8991 21.875 40.625C21.875 42.3509 23.2741 43.75 25 43.75H34.375C36.1009 43.75 37.5 42.3509 37.5 40.625C37.5 38.8991 36.1009 37.5 34.375 37.5H25Z" fill="#F4980E"/>
</svg>
